<svg xmlns="http://www.w3.org/2000/svg" version="1.1" xmlns:xlink="http://www.w3.org/1999/xlink" xmlns:svgjs="http://svgjs.com/svgjs" width="720" height="240" preserveAspectRatio="none" viewBox="0 0 720 240"><g mask="url(&quot;#SvgjsMask1055&quot;)" fill="none"><rect width="720" height="240" x="0" y="0" fill="rgba(224, 231, 255, 1)"></rect><path d="M 0,29 C 28.8,46 86.4,110 144,114 C 201.6,118 230.4,50.6 288,49 C 345.6,47.4 374.4,107.6 432,106 C 489.6,104.4 518.4,43 576,41 C 633.6,39 691.2,85 720,96L720 240L0 240z" fill="rgba(165, 180, 252, 0.7)"></path><path d="M 0,217 C 48,206.4 144,168.8 240,164 C 336,159.2 384,193.2 480,193 C 576,192.8 672,169 720,163L720 240L0 240z" fill="rgba(99, 102, 241, 0.8)"></path></g><defs><mask id="SvgjsMask1055"><rect width="720" height="240" fill="#ffffff"></rect></mask></defs></svg>